<svg width="97" height="80" viewBox="0 0 97 80" fill="none" xmlns="http://www.w3.org/2000/svg">
<g filter="url(#filter0_d_567_504)">
<ellipse cx="48.3008" cy="39.7998" rx="35" ry="22.5" fill="white"/>
<path d="M48.3008 18.7998C57.7215 18.7998 66.1807 21.2572 72.2383 25.1514C78.312 29.0559 81.8008 34.27 81.8008 39.7998C81.8008 45.3296 78.312 50.5437 72.2383 54.4482C66.1807 58.3424 57.7215 60.7998 48.3008 60.7998C38.88 60.7998 30.4209 58.3424 24.3633 54.4482C18.2896 50.5437 14.8008 45.3296 14.8008 39.7998C14.8008 34.27 18.2896 29.0559 24.3633 25.1514C30.4209 21.2572 38.88 18.7998 48.3008 18.7998Z" stroke="#F7F4ED" stroke-width="3"/>
</g>
<g filter="url(#filter1_d_567_504)">
<ellipse cx="48.3008" cy="32.2998" rx="35" ry="23" fill="#CCCCCC"/>
<path d="M48.3008 10.7998C57.7152 10.7998 66.1695 13.3104 72.2256 17.29C78.2942 21.278 81.8008 26.6163 81.8008 32.2998C81.8008 37.9833 78.2942 43.3216 72.2256 47.3096C66.1695 51.2892 57.7152 53.7998 48.3008 53.7998C38.8864 53.7998 30.432 51.2892 24.376 47.3096C18.3074 43.3216 14.8008 37.9833 14.8008 32.2998C14.8008 26.6163 18.3074 21.278 24.376 17.29C30.432 13.3104 38.8864 10.7998 48.3008 10.7998Z" stroke="#F7F4ED" stroke-width="3"/>
</g>
<defs>
<filter id="filter0_d_567_504" x="0.000781059" y="7.9998" width="96.6" height="71.6" filterUnits="userSpaceOnUse" color-interpolation-filters="sRGB">
<feFlood flood-opacity="0" result="BackgroundImageFix"/>
<feColorMatrix in="SourceAlpha" type="matrix" values="0 0 0 0 0 0 0 0 0 0 0 0 0 0 0 0 0 0 127 0" result="hardAlpha"/>
<feOffset dy="4"/>
<feGaussianBlur stdDeviation="6.65"/>
<feComposite in2="hardAlpha" operator="out"/>
<feColorMatrix type="matrix" values="0 0 0 0 0 0 0 0 0 0 0 0 0 0 0 0 0 0 0.21 0"/>
<feBlend mode="normal" in2="BackgroundImageFix" result="effect1_dropShadow_567_504"/>
<feBlend mode="normal" in="SourceGraphic" in2="effect1_dropShadow_567_504" result="shape"/>
</filter>
<filter id="filter1_d_567_504" x="0.000781059" y="-0.000195503" width="96.6" height="72.6" filterUnits="userSpaceOnUse" color-interpolation-filters="sRGB">
<feFlood flood-opacity="0" result="BackgroundImageFix"/>
<feColorMatrix in="SourceAlpha" type="matrix" values="0 0 0 0 0 0 0 0 0 0 0 0 0 0 0 0 0 0 127 0" result="hardAlpha"/>
<feOffset dy="4"/>
<feGaussianBlur stdDeviation="6.65"/>
<feComposite in2="hardAlpha" operator="out"/>
<feColorMatrix type="matrix" values="0 0 0 0 0 0 0 0 0 0 0 0 0 0 0 0 0 0 0.21 0"/>
<feBlend mode="normal" in2="BackgroundImageFix" result="effect1_dropShadow_567_504"/>
<feBlend mode="normal" in="SourceGraphic" in2="effect1_dropShadow_567_504" result="shape"/>
</filter>
</defs>
</svg>
