<svg width="18" height="18" viewBox="0 0 18 18" fill="none" xmlns="http://www.w3.org/2000/svg">
<path d="M13.5 5.24986C13.5 5.3982 13.456 5.5432 13.3736 5.66654C13.2912 5.78988 13.1741 5.88601 13.037 5.94277C12.9 5.99954 12.7492 6.01439 12.6037 5.98545C12.4582 5.95651 12.3246 5.88508 12.2197 5.78019C12.1148 5.6753 12.0434 5.54167 12.0144 5.39618C11.9855 5.25069 12.0003 5.09989 12.0571 4.96285C12.1139 4.82581 12.21 4.70867 12.3333 4.62626C12.4567 4.54385 12.6017 4.49986 12.75 4.49986C12.9489 4.49986 13.1397 4.57888 13.2803 4.71953C13.421 4.86018 13.5 5.05095 13.5 5.24986ZM10.5 6.74986C10.3517 6.74986 10.2067 6.79385 10.0833 6.87626C9.95999 6.95867 9.86386 7.0758 9.80709 7.21285C9.75033 7.34989 9.73547 7.50069 9.76441 7.64618C9.79335 7.79167 9.86478 7.9253 9.96967 8.03019C10.0746 8.13508 10.2082 8.20651 10.3537 8.23545C10.4992 8.26439 10.65 8.24954 10.787 8.19277C10.9241 8.13601 11.0412 8.03988 11.1236 7.91654C11.206 7.7932 11.25 7.6482 11.25 7.49986C11.25 7.30095 11.171 7.11018 11.0303 6.96953C10.8897 6.82888 10.6989 6.74986 10.5 6.74986ZM8.25 8.99986C8.10166 8.99986 7.95666 9.04385 7.83332 9.12626C7.70999 9.20867 7.61386 9.3258 7.55709 9.46285C7.50033 9.59989 7.48547 9.75069 7.51441 9.89618C7.54335 10.0417 7.61478 10.1753 7.71967 10.2802C7.82456 10.3851 7.9582 10.4565 8.10368 10.4855C8.24917 10.5144 8.39997 10.4995 8.53701 10.4428C8.67406 10.386 8.79119 10.2899 8.8736 10.1665C8.95601 10.0432 9 9.8982 9 9.74986C9 9.55095 8.92098 9.36018 8.78033 9.21953C8.63968 9.07888 8.44891 8.99986 8.25 8.99986ZM17.8995 2.21836L17.8433 2.37661C16.7168 5.50261 15.636 8.47486 13.5 11.1149V11.2499C13.4987 12.3986 13.2579 13.5345 12.793 14.585C12.3281 15.6356 11.6494 16.5776 10.8 17.3511C10.3504 17.7659 9.76174 17.9974 9.15 17.9999C8.51331 17.9979 7.90333 17.7438 7.45355 17.2931C7.00376 16.8425 6.75079 16.2321 6.75 15.5954V14.7321C6.19657 14.5536 5.6928 14.2477 5.27925 13.8389L5.25 13.8104L3.53025 15.5301C3.3888 15.6667 3.19935 15.7423 3.0027 15.7406C2.80605 15.7389 2.61794 15.66 2.47889 15.521C2.33983 15.3819 2.26095 15.1938 2.25924 14.9972C2.25754 14.8005 2.33313 14.6111 2.46975 14.4696L4.1895 12.7499L4.16025 12.7214C3.75117 12.3073 3.44452 11.8034 3.26475 11.2499H2.52225C1.85362 11.2493 1.21254 10.9834 0.739673 10.5107C0.26681 10.038 0.000794304 9.39699 0 8.72836C0.00132666 8.07535 0.253127 7.44772 0.7035 6.97486C1.48763 6.16956 2.42909 5.53424 3.46932 5.10845C4.50954 4.68266 5.62627 4.4755 6.75 4.49986H6.885C9.525 2.36461 12.495 1.28386 15.6195 0.158112L15.7815 0.100362C16.0771 -0.0083274 16.3977 -0.0301193 16.7054 0.0375608C17.013 0.105241 17.2948 0.259565 17.5176 0.482298C17.7403 0.705031 17.8946 0.986865 17.9623 1.2945C18.03 1.60214 18.0082 1.92272 17.8995 2.21836ZM2.52225 9.74986H3.075C3.13134 9.08905 3.36193 8.45499 3.74325 7.91236C4.16178 7.31019 4.61479 6.73273 5.1 6.18286C3.8419 6.44327 2.69172 7.07744 1.8 8.00236C1.6103 8.19674 1.50284 8.45677 1.5 8.72836C1.5004 8.99929 1.60825 9.259 1.79989 9.4505C1.99154 9.642 2.25132 9.74966 2.52225 9.74986ZM11.775 12.9389C11.2371 13.4098 10.6732 13.8502 10.086 14.2581C9.54293 14.6357 8.90936 14.8624 8.25 14.9151V15.5954C8.2504 15.8353 8.34592 16.0652 8.51563 16.2348C8.68533 16.4043 8.91535 16.4997 9.15525 16.4999C9.39307 16.4964 9.62099 16.4041 9.79425 16.2411C10.7611 15.356 11.4494 14.2086 11.775 12.9389ZM16.4528 1.54711C16.4328 1.52488 16.4063 1.50946 16.3772 1.503C16.348 1.49655 16.3175 1.49938 16.29 1.51111L16.1287 1.56961C12.4958 2.87836 9.3585 4.00936 6.657 6.71011C6.0373 7.34916 5.47326 8.03992 4.971 8.77486C4.6655 9.20849 4.52302 9.73611 4.56872 10.2646C4.61441 10.793 4.84535 11.2884 5.22075 11.6631L6.33975 12.7806C6.71431 13.1557 7.2093 13.3866 7.73743 13.4324C8.26556 13.4782 8.79292 13.3361 9.2265 13.0311C9.96104 12.5289 10.6513 11.9649 11.2898 11.3451C13.9898 8.64511 15.1223 5.50486 16.4318 1.87036L16.4888 1.71211C16.5009 1.68432 16.5039 1.65341 16.4975 1.62378C16.491 1.59415 16.4754 1.56732 16.4528 1.54711Z" fill="white"/>
</svg>
