<svg width="18" height="18" viewBox="0 0 18 18" fill="none" xmlns="http://www.w3.org/2000/svg">
<g clip-path="url(#clip0_566_447)">
<path d="M17.2508 8.25C17.0519 8.25 16.8611 8.32902 16.7204 8.46967C16.5798 8.61032 16.5008 8.80109 16.5008 9C16.5069 10.744 15.9071 12.4359 14.8039 13.7866C13.7008 15.1373 12.1627 16.063 10.4527 16.4054C8.74266 16.7477 6.9668 16.4856 5.42866 15.6636C3.89051 14.8417 2.68557 13.5111 2.01979 11.8993C1.35401 10.2874 1.26872 8.4943 1.77851 6.82651C2.28829 5.15871 3.36149 3.71974 4.81468 2.75555C6.26787 1.79136 8.01082 1.36182 9.74563 1.54033C11.4804 1.71884 13.0994 2.49433 14.3258 3.73425C14.3011 3.74098 14.2761 3.74624 14.2508 3.75H12.0008C11.8019 3.75 11.6111 3.82902 11.4704 3.96967C11.3298 4.11032 11.2508 4.30109 11.2508 4.5C11.2508 4.69891 11.3298 4.88968 11.4704 5.03033C11.6111 5.17098 11.8019 5.25 12.0008 5.25H14.2508C14.8475 5.25 15.4198 5.01295 15.8418 4.59099C16.2637 4.16903 16.5008 3.59674 16.5008 3V0.75C16.5008 0.551088 16.4218 0.360322 16.2811 0.21967C16.1404 0.0790176 15.9497 0 15.7508 0C15.5519 0 15.3611 0.0790176 15.2204 0.21967C15.0798 0.360322 15.0008 0.551088 15.0008 0.75V2.29875C13.4652 0.925898 11.505 0.121625 9.44766 0.0203269C7.39036 -0.0809709 5.3606 0.526843 3.69758 1.7422C2.03455 2.95756 0.838995 4.70684 0.310688 6.69773C-0.217619 8.68862 -0.0466731 10.8005 0.794961 12.6805C1.6366 14.5605 3.09793 16.0947 4.93478 17.0268C6.77163 17.9589 8.87271 18.2323 10.8869 17.8014C12.9012 17.3706 14.7065 16.2615 16.0013 14.6595C17.2961 13.0576 18.0019 11.0598 18.0008 9C18.0008 8.80109 17.9218 8.61032 17.7811 8.46967C17.6404 8.32902 17.4497 8.25 17.2508 8.25Z" fill="white"/>
<path d="M9 4.5C8.80109 4.5 8.61032 4.57902 8.46967 4.71967C8.32902 4.86032 8.25 5.05109 8.25 5.25V9C8.25004 9.1989 8.32909 9.38963 8.46975 9.53025L10.7197 11.7803C10.8612 11.9169 11.0507 11.9925 11.2473 11.9908C11.4439 11.989 11.6321 11.9102 11.7711 11.7711C11.9102 11.6321 11.989 11.4439 11.9908 11.2473C11.9925 11.0507 11.9169 10.8612 11.7802 10.7198L9.75 8.6895V5.25C9.75 5.05109 9.67098 4.86032 9.53033 4.71967C9.38968 4.57902 9.19891 4.5 9 4.5Z" fill="white"/>
</g>
<defs>
<clipPath id="clip0_566_447">
<rect width="18" height="18" fill="white"/>
</clipPath>
</defs>
</svg>
