<?xml version="1.0" encoding="UTF-8"?>
<svg id="Calque_2" data-name="Calque 2" xmlns="http://www.w3.org/2000/svg" viewBox="0 0 335.99 134.13">
  <defs>
    <style>
      .cls-1 {
        fill: #fff;
      }
    </style>
  </defs>
  <g>
    <path class="cls-1" d="M328.52,93.54h0c-2.49-.54-4.45-1.08-4.45-2.69,0-.89.62-1.5,1.59-1.84.56-.16,1.2-.25,1.92-.25,2.14,0,4.04.96,5.47,2.04l2.41-3.35c-1.78-1.43-4.45-2.69-7.84-2.69-1.16,0-2.27.15-3.28.44-2.98.79-5.13,2.81-5.13,6.06,0,4.3,4.09,5.55,7.48,6.44,2.49.54,4.45,1.08,4.45,2.69,0,1.02-.91,1.75-2.26,2.1-.49.11-1.04.16-1.62.16-2.49,0-4.74-1.01-6.16-2.62l-2.43,3.4c1.96,1.61,4.81,3.04,8.55,3.04,1.25,0,2.42-.16,3.48-.47,3.14-.84,5.29-2.96,5.29-6.22,0-4.3-4.1-5.55-7.48-6.27v.03h0Z"/>
    <rect class="cls-1" x="310.33" y="77.26" width="4.68" height="28.69"/>
    <path class="cls-1" d="M265.13,79.05h-6.42c-.82,0-1.6.13-2.35.37-1.23.36-2.34,1.01-3.25,1.88-1.42-1.39-3.34-2.25-5.45-2.25h-6.64v4.36h7.66c1.25,0,2.14.89,2.14,2.15v20.22h4.5v-20.29c0-1.02.59-1.79,1.47-2.05.14-.03.29-.04.44-.04h7.89v-4.36h.01Z"/>
    <path class="cls-1" d="M295.2,84.93h-.02c-.54,0-3.38,0-6.05,1.79-.89.54-1.25.89-1.78,1.26l-1.07.72c-.87.53-2.08.87-3.48.89-1.39-.02-2.6-.36-3.48-.89l-1.07-.72c-.54-.36-.89-.72-1.78-1.26-2.67-1.79-5.52-1.79-6.05-1.79-5.88,0-10.68,4.84-10.68,10.74s4.81,10.74,10.68,10.74c.72,0,3.56-.18,5.88-1.97.89-.54,1.25-.89,1.79-1.26l1.07-.72c.89-.54,2.14-.89,3.56-.89h.19c1.42,0,2.67.36,3.56.89l1.07.72c.54.36.89.72,1.79,1.26,2.32,1.79,5.16,1.97,5.88,1.97,5.88,0,10.68-4.84,10.68-10.74s-4.81-10.74-10.68-10.74h-.01ZM295.18,101.93s-1.96,0-3.56-1.07c-.89-.54-1.25-.89-1.79-1.26l-1.07-.72c-1.6-1.08-3.74-1.61-5.88-1.61h-.19c-2.14,0-4.28.54-5.88,1.61l-1.07.72c-.54.36-.89.72-1.79,1.26-1.6,1.07-3.56,1.07-3.56,1.07-3.56,0-6.42-2.86-6.42-6.44s2.85-6.44,6.42-6.44c0,0,1.96,0,3.56,1.08,1.03.76,1.25.89,1.79,1.26l1.07.72c1.6,1.07,3.56,1.61,5.88,1.61h.19c2.32,0,4.28-.54,5.88-1.61l1.07-.72c.55-.36.85-.55,1.79-1.26,1.68-1.27,3.56-1.08,3.56-1.08,3.56,0,6.42,2.86,6.42,6.44s-2.85,6.44-6.42,6.44Z"/>
    <path class="cls-1" d="M126.23,84.32v3.46l-1.09-.73c-.55-.36-.91-.73-1.81-1.27-2.71-1.81-5.61-1.81-6.15-1.81-5.97,0-10.85,4.91-10.85,10.91s4.88,10.91,10.85,10.91h.18c.73,0,5.4,0,8.87-3.81,0,1.81,0,3.09-.18,3.27h4.15c-.55-1.27,0-21.08,0-20.9h-3.98v-.03h0ZM126.23,97.77c-2.53.37-5.61,3.64-8.87,3.46-3.62,0-6.52-2.91-6.52-6.54s2.9-6.54,6.52-6.54,6.69,3.46,8.87,3.64v6-.02Z"/>
    <path class="cls-1" d="M54.25,94.69h0c0-6.01-4.88-10.92-10.85-10.92-3.8,0-5.97,2-7.78,3.46v-3.27h-4.52s.36,20.17-.36,21.26h5.06c-.55-.91-.55-7.63-.55-13.27,2.26-1.89,4.04-2.75,4.04-2.75,2.07-1.21,3.92-1.07,3.92-1.07,3.62,0,6.52,2.91,6.52,6.54,0,0,.36,10,0,10.54h4.7c-.36-2-.18-10.54-.18-10.54,0,0,0,.02,0,.02Z"/>
    <path class="cls-1" d="M65.65,88.87c1.99-.91,4.88-.73,8.32,2.18.36-.55,3.08-3.99,3.08-3.99,0,0-1.81-.55-3.08-1.27-3.08-1.81-6.69-2.36-9.94-1.09-3.44,1.27-5.79,3.99-6.69,7.45-.54,2-.36,3.81-.18,4.54.73,3.64,3.08,6.72,6.52,8.18,1.44.55,2.89.91,4.34.91,2.17,0,4.34-.73,6.15-1.81.82-.52,1.28-.74,1.87-1.1l.65-.36-2.71-3.99s-.73,1.45-2.17,2.18c-1.99,1.09-4.34,1.45-6.33.55-2.17-.91-3.62-2.73-3.98-5.09,0-.37-.18-1.45.18-2.73.54-2.18,1.99-3.81,3.98-4.54v-.02h-.01Z"/>
    <path class="cls-1" d="M23.5,79.78c1.44,0,2.71-.73,3.08-2l.73-3.09c-4.52.91-7.96,0-12.84,0s-9.05,2.73-9.58,7.82c-.18,2,.73,3.81,2.17,5.27-3.98.73-7.06,4.18-7.06,8.55,0,4.91,3.98,8.9,8.87,8.9h18.08v-5.44c-.18.08-2.78.54-18.08.54-2.89,0-3.98-1.81-3.98-3.99s1.81-3.99,3.98-3.99l7.23.18c1.81,0,3.26-1.63,3.62-3.46.18-.55.18-1.63.18-1.63h-3.44c-5.43,0-6.33-2.36-6.69-4.54-.18-1.27.54-3.99,4.16-3.81v-.02c3.25,0,6.32.91,9.57.73v-.02h0Z"/>
    <path class="cls-1" d="M103.28,94.68c0-6-4.88-10.91-10.85-10.91-3.62,0-5.79,1.81-7.78,3.46-.18-7.82.54-9.81.54-9.81h-5.43c.73,1.09.91,25.81-.18,27.81h5.61c-.36-.92-.36-7.1-.54-13.28,0,0,1.53-1.73,3.84-3.02,1.95-.89,3.76-.79,3.76-.79,3.62,0,6.52,2.91,6.52,6.54,0,0,0,7.09-.36,10.54h5.43c-.54,0-.55-10.54-.55-10.54h0Z"/>
    <path class="cls-1" d="M157.7,94.68c0-6-4.88-10.91-10.85-10.91-3.8,0-5.97,2-7.78,3.46v-3.27h-4.52s.36,20.17-.36,21.26h5.06c-.55-.91-.55-7.63-.55-13.27,2.26-1.89,4.04-2.75,4.04-2.75,2.07-1.21,3.92-1.07,3.92-1.07h0c3.62,0,6.52,2.9,6.52,6.53,0,0,.36,10,0,10.54h4.7c-.36-2-.18-10.54-.18-10.54v.02h0Z"/>
    <path class="cls-1" d="M187.72,83.78c-6.33,0-11.03,4.72-11.03,10.91s4.88,11.09,11.58,11.09c3.98,0,7.41-1.63,9.4-4.36l-3.44-3.27c-.73,2.18-3.26,3.46-5.97,3.46-3.44,0-5.97-2-6.69-4.91h16.82c.13-.76.16-1.37.16-1.91,0-6.36-4.5-11-10.83-11h0ZM187.72,92.86h-6.15c.73-2.91,3.08-4.91,6.15-4.91s5.43,2,6.15,4.91h-6.15Z"/>
    <path class="cls-1" d="M167.29,79.24h-4.88c.36,1.27.18,4.91.18,4.91h-3.44v4.18c1.81-.37,3.44-.37,3.44-.37v11.09c0,3.99,2.17,6.54,6.52,6.54,1.44,0,2.53-.37,3.8-.91v-4.72c-.73.91-1.62,1.27-2.71,1.27-1.8,0-2.89-.91-2.89-2.91v-10.36s.18-.18,5.61.37v-4.18h-5.79s-.18-3.46.18-4.91h-.02,0Z"/>
    <path class="cls-1" d="M226.42,77.59h-4.52c.36,2.73.18,4.72.18,10.18l-1.19-.81c-.54-.36-1-.65-1.89-1.19-2.71-1.81-5.61-1.81-6.15-1.81-5.97,0-10.85,4.91-10.85,10.91s4.88,10.91,10.85,10.91h.18c.73,0,3.44-.18,5.97-1.81,1.09-.71,1.27-.91,1.81-1.27l1.09-.73c0,1.81-.18,2.91-.36,3.27.54,0,4.7,0,5.24.18-.73-2.36-.91-25.08-.36-27.81v-.02h0ZM221.9,97.77c-2.35.18-5.61,3.64-9.05,3.46-3.62,0-6.52-2.91-6.52-6.54s2.9-6.54,6.52-6.54,6.87,3.64,9.05,3.64v6-.02Z"/>
    <g>
      <path class="cls-1" d="M184.08,20.04c-7.49.2-8.2,5.77-15.28,5.67-7.08,0-7.89-5.36-15.28-5.67-6.28-.2-11.23,4.86-11.23,10.93s5.06,10.93,11.23,10.93c6.58,0,7.59-5.87,15.28-5.97,7.79,0,8.7,5.97,15.28,5.97s11.23-4.86,11.23-10.93-5.06-11.13-11.23-10.93Z"/>
      <circle class="cls-1" cx="168.8" cy="10.42" r="10.42"/>
      <circle class="cls-1" cx="168.8" cy="51.01" r="10.42"/>
    </g>
  </g>
  <g>
    <path class="cls-1" d="M139.22,133.88v-10.2l3.92.02c1.72,0,2.9.95,2.9,2.52v1.72c0,1.67-1.32,2.56-2.95,2.56h-2.23v3.38h-1.64ZM140.86,129.08h1.67c.97,0,1.89-.28,1.89-1.42v-1.1c0-.89-.58-1.44-1.8-1.44h-1.75v3.96h0Z"/>
    <path class="cls-1" d="M151.63,133.88v-.52l3.08-9.68h2.28l3.12,9.67v.54h-1.55l-.8-2.66h-3.83l-.8,2.66h-1.49,0ZM154.38,129.74h2.93l-1.42-4.69h-.1l-1.41,4.69h0Z"/>
    <path class="cls-1" d="M172.56,133.88l-2.12-4.03h-1.72v4.03h-1.64v-10.2h3.9c1.72,0,2.92.93,2.92,2.42v1.13c0,1.26-.82,2.05-1.85,2.35l2.06,3.77v.52h-1.57,0ZM168.73,128.43h1.64c.97,0,1.9-.32,1.9-1.39v-.61c0-.78-.59-1.32-1.8-1.32h-1.74v3.32h0Z"/>
    <path class="cls-1" d="M180.95,133.93v-1.32h1.42v-7.6h-1.42v-1.32h4.46v1.32h-1.41v7.6h1.41v1.32h-4.46Z"/>
    <path class="cls-1" d="M195.55,134.13c-2.76,0-3.32-1.25-3.32-2.25v-1.08l1.59-.07v.77c0,.65.33,1.26,1.79,1.26s1.85-.87,1.85-1.72-.45-1.28-1.39-1.59l-1.6-.52c-1.52-.48-2.16-1.32-2.16-2.69,0-1.62,1-2.83,3.49-2.83s3.15,1.15,3.15,2.15v1.13l-1.52.06v-.87c0-.58-.36-1.19-1.64-1.19s-1.79.62-1.8,1.38c-.02.82.46,1.26,1.38,1.55l1.61.49c1.32.41,2.19,1.09,2.19,2.82s-1.06,3.18-3.59,3.18h0Z"/>
  </g>
</svg>